<?xml version="1.0" standalone="no"?>
<!DOCTYPE svg PUBLIC "-//W3C//DTD SVG 20010904//EN"
 "http://www.w3.org/TR/2001/REC-SVG-20010904/DTD/svg10.dtd">
<svg version="1.0" xmlns="http://www.w3.org/2000/svg"
 width="500.000000pt" height="500.000000pt" viewBox="0 0 500.000000 500.000000"
 preserveAspectRatio="xMidYMid meet">
<metadata>
Created by potrace 1.14, written by Peter Selinger 2001-2017
</metadata>
<g transform="translate(0.000000,500.000000) scale(0.100000,-0.100000)"
fill="#000000" stroke="none">
<path d="M690 4986 c-279 -62 -496 -232 -610 -480 -81 -175 -75 -11 -75 -2006
0 -1452 2 -1785 13 -1830 77 -315 289 -540 599 -637 l88 -28 1750 -3 c1275 -2
1770 0 1823 8 367 57 655 345 712 712 8 53 10 547 8 1823 -3 1670 -4 1753 -22
1815 -95 334 -364 577 -696 630 -100 15 -3518 12 -3590 -4z"/>
</g>
</svg>
